<mxfile host="app.diagrams.net" agent="Mozilla/5.0 (Windows NT 10.0; Win64; x64) AppleWebKit/537.36 (KHTML, like Gecko) Chrome/133.0.0.0 Safari/537.36" version="26.0.14">
  <diagram name="Page-1" id="2OanDRJmaYUeelWQK_8h">
    <mxGraphModel dx="4690" dy="2243" grid="1" gridSize="10" guides="1" tooltips="1" connect="1" arrows="1" fold="1" page="1" pageScale="1" pageWidth="850" pageHeight="1100" math="0" shadow="0">
      <root>
        <mxCell id="0" />
        <mxCell id="1" parent="0" />
        <mxCell id="lLmpeXdTmonKu4j5xGK4-124" value="" style="shape=image;verticalLabelPosition=bottom;labelBackgroundColor=default;verticalAlign=top;aspect=fixed;imageAspect=0;image=https://cdn.freelogovectors.net/wp-content/uploads/2020/09/kainos-logo.png;textShadow=1;" parent="1" vertex="1">
          <mxGeometry x="-2165" y="-974.22" width="195" height="44.85" as="geometry" />
        </mxCell>
        <mxCell id="lLmpeXdTmonKu4j5xGK4-125" value="Designed by your Workday Partner" style="text;html=1;align=center;verticalAlign=middle;whiteSpace=wrap;rounded=0;textShadow=1;" parent="1" vertex="1">
          <mxGeometry x="-2170" y="-929.37" width="200" height="30" as="geometry" />
        </mxCell>
        <mxCell id="lLmpeXdTmonKu4j5xGK4-126" value="&lt;b&gt;&lt;font style=&quot;font-size: 16px;&quot;&gt;Proposed Solution Overview (Workday FINANCE Perspective)&lt;/font&gt;&lt;/b&gt;" style="text;html=1;align=center;verticalAlign=middle;whiteSpace=wrap;rounded=0;fillColor=#000066;fontColor=#ffffff;strokeColor=#432D57;textShadow=1;" parent="1" vertex="1">
          <mxGeometry x="-2170" y="-884.22" width="1660" height="54.89" as="geometry" />
        </mxCell>
        <mxCell id="lLmpeXdTmonKu4j5xGK4-127" value="&lt;b&gt;LEGENDS&lt;/b&gt;" style="text;html=1;align=center;verticalAlign=middle;whiteSpace=wrap;rounded=0;textShadow=1;" parent="1" vertex="1">
          <mxGeometry x="-2209.5" y="-810" width="200" height="30" as="geometry" />
        </mxCell>
        <mxCell id="lLmpeXdTmonKu4j5xGK4-128" value="" style="endArrow=classic;html=1;rounded=0;strokeColor=#000000;textShadow=1;" parent="1" edge="1">
          <mxGeometry width="50" height="50" relative="1" as="geometry">
            <mxPoint x="-2170" y="-765" as="sourcePoint" />
            <mxPoint x="-1924.5" y="-764.89" as="targetPoint" />
          </mxGeometry>
        </mxCell>
        <mxCell id="lLmpeXdTmonKu4j5xGK4-129" value="WD INTEGRATION IN SCOPE" style="edgeLabel;html=1;align=center;verticalAlign=middle;resizable=0;points=[];textShadow=1;" parent="lLmpeXdTmonKu4j5xGK4-128" vertex="1" connectable="0">
          <mxGeometry x="-0.0805" y="5" relative="1" as="geometry">
            <mxPoint x="-2" y="15" as="offset" />
          </mxGeometry>
        </mxCell>
        <mxCell id="lLmpeXdTmonKu4j5xGK4-130" value="" style="endArrow=classic;html=1;rounded=0;dashed=1;textShadow=1;strokeColor=#CC0066;" parent="1" edge="1">
          <mxGeometry width="50" height="50" relative="1" as="geometry">
            <mxPoint x="-2170" y="-700" as="sourcePoint" />
            <mxPoint x="-1926.5" y="-699.89" as="targetPoint" />
          </mxGeometry>
        </mxCell>
        <mxCell id="lLmpeXdTmonKu4j5xGK4-131" value="NON WD INTEGRATION / PROCESS" style="edgeLabel;html=1;align=center;verticalAlign=middle;resizable=0;points=[];textShadow=1;" parent="lLmpeXdTmonKu4j5xGK4-130" vertex="1" connectable="0">
          <mxGeometry x="-0.0805" y="5" relative="1" as="geometry">
            <mxPoint x="-2" y="15" as="offset" />
          </mxGeometry>
        </mxCell>
        <mxCell id="lLmpeXdTmonKu4j5xGK4-132" style="edgeStyle=orthogonalEdgeStyle;rounded=1;orthogonalLoop=1;jettySize=auto;html=1;curved=0;textShadow=1;strokeColor=#007FFF;strokeWidth=1.5;dashed=1;align=center;verticalAlign=middle;fontFamily=Helvetica;fontSize=11;fontColor=default;labelBackgroundColor=default;endArrow=classic;" parent="1" source="lLmpeXdTmonKu4j5xGK4-147" edge="1">
          <mxGeometry relative="1" as="geometry">
            <mxPoint x="-899.5" y="-376.67" as="targetPoint" />
            <Array as="points">
              <mxPoint x="-1264.5" y="-446.67" />
              <mxPoint x="-1264.5" y="-426.67" />
            </Array>
          </mxGeometry>
        </mxCell>
        <mxCell id="lLmpeXdTmonKu4j5xGK4-133" value="&lt;span style=&quot;background-color: rgb(204, 255, 255);&quot;&gt;&amp;nbsp; &amp;nbsp; &amp;nbsp;PAYMENTS FILE&lt;/span&gt;" style="edgeLabel;html=1;align=center;verticalAlign=middle;resizable=0;points=[];textShadow=1;rounded=1;dashed=1;strokeColor=#007FFF;strokeWidth=2;fontFamily=Helvetica;fontSize=11;fontColor=default;labelBackgroundColor=default;" parent="lLmpeXdTmonKu4j5xGK4-132" vertex="1" connectable="0">
          <mxGeometry x="-0.2781" y="1" relative="1" as="geometry">
            <mxPoint x="-24" as="offset" />
          </mxGeometry>
        </mxCell>
        <mxCell id="lLmpeXdTmonKu4j5xGK4-134" value="&lt;b&gt;CHAPS&lt;/b&gt;" style="edgeLabel;html=1;align=center;verticalAlign=middle;resizable=0;points=[];textShadow=1;rounded=1;dashed=1;strokeColor=#007FFF;strokeWidth=2;fontFamily=Helvetica;fontSize=11;fontColor=default;labelBackgroundColor=default;" parent="lLmpeXdTmonKu4j5xGK4-132" vertex="1" connectable="0">
          <mxGeometry x="0.3364" relative="1" as="geometry">
            <mxPoint x="-17" as="offset" />
          </mxGeometry>
        </mxCell>
        <mxCell id="lLmpeXdTmonKu4j5xGK4-135" style="edgeStyle=orthogonalEdgeStyle;rounded=1;orthogonalLoop=1;jettySize=auto;html=1;exitX=1;exitY=0;exitDx=0;exitDy=42.5;exitPerimeter=0;curved=0;textShadow=1;strokeColor=#007FFF;entryX=0.75;entryY=0;entryDx=0;entryDy=0;strokeWidth=1.5;dashed=1;align=center;verticalAlign=middle;fontFamily=Helvetica;fontSize=11;fontColor=default;labelBackgroundColor=default;endArrow=classic;" parent="1" source="lLmpeXdTmonKu4j5xGK4-147" target="lLmpeXdTmonKu4j5xGK4-153" edge="1">
          <mxGeometry relative="1" as="geometry">
            <mxPoint x="-879.5" y="-396.67" as="targetPoint" />
            <Array as="points">
              <mxPoint x="-1609.5" y="-453.67" />
              <mxPoint x="-1609.5" y="-466.67" />
              <mxPoint x="-879.5" y="-466.67" />
            </Array>
          </mxGeometry>
        </mxCell>
        <mxCell id="lLmpeXdTmonKu4j5xGK4-136" style="edgeStyle=orthogonalEdgeStyle;rounded=1;orthogonalLoop=1;jettySize=auto;html=1;curved=0;textShadow=1;entryX=0.25;entryY=0;entryDx=0;entryDy=0;strokeColor=#007FFF;strokeWidth=1.5;dashed=1;align=center;verticalAlign=middle;fontFamily=Helvetica;fontSize=11;fontColor=default;labelBackgroundColor=default;endArrow=classic;" parent="1" source="lLmpeXdTmonKu4j5xGK4-147" target="lLmpeXdTmonKu4j5xGK4-153" edge="1">
          <mxGeometry relative="1" as="geometry">
            <mxPoint x="-939.5" y="-386.67" as="targetPoint" />
            <Array as="points">
              <mxPoint x="-1264.5" y="-416.67" />
              <mxPoint x="-1264.5" y="-386.67" />
              <mxPoint x="-909.5" y="-386.67" />
            </Array>
          </mxGeometry>
        </mxCell>
        <mxCell id="lLmpeXdTmonKu4j5xGK4-137" value="&lt;b&gt;SWIFT&lt;/b&gt;" style="edgeLabel;html=1;align=center;verticalAlign=middle;resizable=0;points=[];textShadow=1;rounded=1;dashed=1;strokeColor=#007FFF;strokeWidth=2;fontFamily=Helvetica;fontSize=11;fontColor=default;labelBackgroundColor=default;" parent="lLmpeXdTmonKu4j5xGK4-136" vertex="1" connectable="0">
          <mxGeometry x="0.324" relative="1" as="geometry">
            <mxPoint x="23" as="offset" />
          </mxGeometry>
        </mxCell>
        <mxCell id="lLmpeXdTmonKu4j5xGK4-138" style="edgeStyle=orthogonalEdgeStyle;rounded=1;orthogonalLoop=1;jettySize=auto;html=1;curved=0;textShadow=1;strokeColor=#007FFF;strokeWidth=1.5;dashed=1;align=center;verticalAlign=middle;fontFamily=Helvetica;fontSize=11;fontColor=default;labelBackgroundColor=default;endArrow=classic;" parent="1" source="lLmpeXdTmonKu4j5xGK4-147" edge="1">
          <mxGeometry relative="1" as="geometry">
            <mxPoint x="-929.5" y="-356.67" as="targetPoint" />
            <Array as="points">
              <mxPoint x="-1279.5" y="-386.67" />
              <mxPoint x="-1279.5" y="-356.67" />
            </Array>
          </mxGeometry>
        </mxCell>
        <mxCell id="lLmpeXdTmonKu4j5xGK4-139" value="&lt;b&gt;SEPA&lt;/b&gt;" style="edgeLabel;html=1;align=center;verticalAlign=middle;resizable=0;points=[];textShadow=1;rounded=1;dashed=1;strokeColor=#007FFF;strokeWidth=2;fontFamily=Helvetica;fontSize=11;fontColor=default;labelBackgroundColor=default;" parent="lLmpeXdTmonKu4j5xGK4-138" vertex="1" connectable="0">
          <mxGeometry x="0.3254" y="-2" relative="1" as="geometry">
            <mxPoint x="43" y="-2" as="offset" />
          </mxGeometry>
        </mxCell>
        <mxCell id="lLmpeXdTmonKu4j5xGK4-140" style="edgeStyle=orthogonalEdgeStyle;rounded=1;orthogonalLoop=1;jettySize=auto;html=1;curved=0;textShadow=1;strokeColor=#1A1A1A;exitX=0.894;exitY=0.961;exitDx=0;exitDy=0;exitPerimeter=0;strokeWidth=2;" parent="1" source="lLmpeXdTmonKu4j5xGK4-147" target="lLmpeXdTmonKu4j5xGK4-153" edge="1">
          <mxGeometry relative="1" as="geometry">
            <mxPoint x="-929.5" y="-326.67" as="targetPoint" />
            <Array as="points">
              <mxPoint x="-1608.5" y="-326.67" />
            </Array>
          </mxGeometry>
        </mxCell>
        <mxCell id="lLmpeXdTmonKu4j5xGK4-141" value="&lt;b&gt;BACS CREDIT&lt;/b&gt;" style="edgeLabel;html=1;align=center;verticalAlign=middle;resizable=0;points=[];textShadow=1;" parent="lLmpeXdTmonKu4j5xGK4-140" vertex="1" connectable="0">
          <mxGeometry x="0.3419" y="1" relative="1" as="geometry">
            <mxPoint x="42" y="1" as="offset" />
          </mxGeometry>
        </mxCell>
        <mxCell id="lLmpeXdTmonKu4j5xGK4-142" style="edgeStyle=orthogonalEdgeStyle;rounded=1;orthogonalLoop=1;jettySize=auto;html=1;curved=0;textShadow=1;entryX=0.5;entryY=1;entryDx=0;entryDy=0;strokeColor=#1A1A1A;exitX=0.796;exitY=0.985;exitDx=0;exitDy=0;exitPerimeter=0;strokeWidth=2;" parent="1" source="lLmpeXdTmonKu4j5xGK4-147" target="lLmpeXdTmonKu4j5xGK4-153" edge="1">
          <mxGeometry relative="1" as="geometry">
            <mxPoint x="-929.5" y="-276.67" as="targetPoint" />
            <Array as="points">
              <mxPoint x="-1626.5" y="-296.67" />
              <mxPoint x="-894.5" y="-296.67" />
            </Array>
          </mxGeometry>
        </mxCell>
        <mxCell id="lLmpeXdTmonKu4j5xGK4-143" value="&lt;b&gt;BACS DIRECT DEBIT&lt;/b&gt;" style="edgeLabel;html=1;align=center;verticalAlign=middle;resizable=0;points=[];textShadow=1;" parent="lLmpeXdTmonKu4j5xGK4-142" vertex="1" connectable="0">
          <mxGeometry x="0.4395" y="2" relative="1" as="geometry">
            <mxPoint as="offset" />
          </mxGeometry>
        </mxCell>
        <mxCell id="lLmpeXdTmonKu4j5xGK4-144" style="edgeStyle=orthogonalEdgeStyle;rounded=1;orthogonalLoop=1;jettySize=auto;html=1;exitX=0.653;exitY=1.008;exitDx=0;exitDy=0;exitPerimeter=0;entryX=0.653;entryY=0.936;entryDx=0;entryDy=0;entryPerimeter=0;strokeColor=#00CCCC;align=center;verticalAlign=middle;fontFamily=Helvetica;fontSize=11;fontColor=default;labelBackgroundColor=default;endArrow=classic;curved=0;strokeWidth=1.5;dashed=1;" parent="1" source="lLmpeXdTmonKu4j5xGK4-147" target="lLmpeXdTmonKu4j5xGK4-153" edge="1">
          <mxGeometry relative="1" as="geometry">
            <mxPoint x="-1429.5" y="84.16333333333334" as="targetPoint" />
            <Array as="points">
              <mxPoint x="-1651.5" y="-266.67" />
              <mxPoint x="-885.5" y="-266.67" />
            </Array>
          </mxGeometry>
        </mxCell>
        <mxCell id="lLmpeXdTmonKu4j5xGK4-145" value="&lt;span style=&quot;background-color: rgb(204, 255, 255);&quot;&gt;FUNDS TRANSFER FILE&lt;/span&gt;" style="edgeLabel;html=1;align=center;verticalAlign=middle;resizable=0;points=[];fontFamily=Helvetica;fontSize=11;fontColor=default;labelBackgroundColor=default;fillColor=none;gradientColor=none;" parent="lLmpeXdTmonKu4j5xGK4-144" vertex="1" connectable="0">
          <mxGeometry x="-0.1667" relative="1" as="geometry">
            <mxPoint x="22" as="offset" />
          </mxGeometry>
        </mxCell>
        <mxCell id="lLmpeXdTmonKu4j5xGK4-146" value="&lt;span style=&quot;color: rgb(74, 74, 74); font-family: Roboto, Arial, Helvetica, sans-serif; font-size: 12px; text-align: start; white-space: pre-wrap; background-color: rgb(215, 234, 252);&quot;&gt;&lt;b&gt;MT101&lt;/b&gt;&lt;/span&gt;" style="edgeLabel;html=1;align=center;verticalAlign=middle;resizable=0;points=[];" parent="lLmpeXdTmonKu4j5xGK4-144" vertex="1" connectable="0">
          <mxGeometry x="0.3666" y="-2" relative="1" as="geometry">
            <mxPoint as="offset" />
          </mxGeometry>
        </mxCell>
        <mxCell id="NwiWy4_LtIeJi4y5TbyK-4" style="edgeStyle=orthogonalEdgeStyle;rounded=1;orthogonalLoop=1;jettySize=auto;html=1;curved=0;strokeColor=#1A1A1A;strokeWidth=2;align=center;verticalAlign=middle;fontFamily=Helvetica;fontSize=11;fontColor=default;labelBackgroundColor=default;endArrow=classic;" edge="1" parent="1" source="lLmpeXdTmonKu4j5xGK4-147">
          <mxGeometry relative="1" as="geometry">
            <mxPoint x="-1030" y="-530" as="targetPoint" />
            <Array as="points">
              <mxPoint x="-1610" y="-530" />
            </Array>
          </mxGeometry>
        </mxCell>
        <mxCell id="NwiWy4_LtIeJi4y5TbyK-35" style="edgeStyle=orthogonalEdgeStyle;rounded=1;orthogonalLoop=1;jettySize=auto;html=1;exitX=0.145;exitY=1;exitDx=0;exitDy=-4.35;exitPerimeter=0;curved=0;" edge="1" parent="1" source="lLmpeXdTmonKu4j5xGK4-147">
          <mxGeometry relative="1" as="geometry">
            <mxPoint x="-1900" y="-270" as="targetPoint" />
            <Array as="points">
              <mxPoint x="-1743" y="-340" />
              <mxPoint x="-1900" y="-340" />
            </Array>
          </mxGeometry>
        </mxCell>
        <mxCell id="lLmpeXdTmonKu4j5xGK4-147" value="&lt;div&gt;&lt;font color=&quot;#ffffff&quot;&gt;&lt;br&gt;&lt;/font&gt;&lt;/div&gt;&lt;div&gt;&lt;font color=&quot;#ffffff&quot;&gt;&lt;br&gt;&lt;/font&gt;&lt;/div&gt;&lt;div&gt;&lt;font color=&quot;#ffffff&quot;&gt;&lt;span style=&quot;background-color: initial;&quot;&gt;HCM, EXPENSES,&lt;/span&gt;&lt;/font&gt;&lt;/div&gt;&lt;div&gt;&lt;font color=&quot;#ffffff&quot;&gt;&lt;span style=&quot;background-color: initial;&quot;&gt;FINANCE&lt;/span&gt;&lt;/font&gt;&lt;/div&gt;" style="shape=cylinder3;whiteSpace=wrap;html=1;boundedLbl=1;backgroundOutline=1;size=15;fillColor=#FFB366;strokeColor=#FFFFFF;shadow=1;textShadow=1;" parent="1" vertex="1">
          <mxGeometry x="-1769.5" y="-520.67" width="180" height="164" as="geometry" />
        </mxCell>
        <mxCell id="lLmpeXdTmonKu4j5xGK4-148" value="" style="shape=image;verticalLabelPosition=bottom;labelBackgroundColor=default;verticalAlign=top;aspect=fixed;imageAspect=0;image=data:image/png,iVBORw0KGgoAAAANSUhEUgAAANMAAABVCAYAAADT7tEcAAAAAXNSR0IArs4c6QAAAARnQU1BAACxjwv8YQUAAAAJcEhZcwAAFxEAABcRAcom8z8AACAVSURBVHhe7V0HdFzVmb4jWbbBGEJJYnYTSNndAAmQShpZSCPZQLLZTZxCc2Jr3psZNTdCnKbkUGzJFnLBYGOCg40tvfdmVFwxgdiwCyEcWkJJII26xoAdSZaLbEuz3/e/+55Go6myjGXzvnPumdHc/t//u/9/y3tSAUY2Xq5Vp+ycqy7MFfYgdM1T5ydr1VidLUCANyf6VqhxW+eqcR2z1Xt21qub9zaqFV31buisV08lb1TJnGGxSvYtUMmuueoBL1/vfLViZ52ajTJPZNl9CLq6AAGOLnTXqQ/33ai+DMvy830L1FYQYSuItF3IcVN/6AVJkCZv6J6H9AtT8t7sE+wVxG/d2yDlV7DOjnr1Xt2MAAGOTCSXqlNgaebsvUHdBuvRKRYFBNjXqJL7EfjZnYEoQw0kWGrZQjbUibi/7p+vlnTWqauSywPXMMARgleuU29PLlMXwhLduH+hejm5yLUcINQg5T/UwSMqiCSWS4i2QD3fVad+gr8vxPrsWN3sAAFGFuBizQJpHqPi0l2jEtNapCt5MWFPg0sCht34nilNoWEX2nIAbWLbSPADC9TdXfOUoZsfIMDhRXe9mnBgkZoE4vxJ3CoEKm4+940ko3Iz9MBqeeue9CDl1KvXkWcHrVumNHTlSDqvvLx160/m6wFJO+eqp/tuUpf88So1XncrQIA3DslaVYJ10A/33KD+QKXkbE9FTlfc1EACcZOAhKOFIAH4iXK2QaGvxeeP00PHHPWdXXPVx7bPUZ/C+ut7u+cNTgOLuBChh9aLZYrlQR35NjOQR6ydpEcf9s1Xm/FbRHcxQIBDD8zsk3oXqie5HiI5MimqF0ggKrhYEKSHsj4JAj2OdUvjjtnq3L6F6tyOG9R7dNFDBso9q6dBncsyO+uUdaARddSrP0u9sHpisXKQndaKO4vcvEB4fOds9TlddIAAww+sL87ouxEWZK7qpeJlU04osWw4eBYCf++FKzcH+WYlbVWqizvk4JkT2nMtrM+NXnsYaI3QlsHtRoDl83YAd8DS/RiTxVt1cQECHDzg0o3qu1mdh7XLX5PLsisjg8zwsAZ7G9RepP8fWJ7P4PMcXdRhA11FWKevod1/EEvpEiZjYN9kfXYr/mYfGtWZupgAAYaO5FJVBsti9cJFowuUSfkYfEuEdL2L1WqQ6mJdxIgD114HFqkNJJS3dsvUJwZv9w+kmqOzBwhQPHZco07vrldNtDTZtqXp6jEei/fdIN3dexrVhTr7iMaTtWp032J1EazQ70GmPq6rMvWPQawUiAfrVvf6teqfdREBAhSGjjplQMn2cVbOtjbyZm0o5eo9N6iLkC3k5j5ywDUcrM7lsFTruQ7kjmCmvnIy4WZLT6Pa0TFHfUlnDxAgN7pApH2LVK8cuqYplb+egDVC3DN0mXS2Ixr2RFUKIv0MfdxBK5RpAuFvvQvlFsXOHXXqEp01QIDMIJFobXiYmb7JwL97QTAs5PfD5bmj6yjc6UIfz8JksYVWiJNGav9FBvWuNd7bqHaBXIGFCpAZUI7yfQtVbyZXR3bpeMeuQe3orFNf0VmOSrzQoI4BqSJw7fq4oZIuC04qB0Co/QtV1/bZI3ejJcBhAmZcU2bjDBaJ6wW5UbBQPfSPOvVZneWoB9ZSl4Iwz2c6U/MsFNaKu4M1VAAfUJTJPQtUX7pFIqnkTAbKBMW6bsccdYLO8qZB13XqjN3z1G3eLYp0+dBCwZp3dgYWKoBnkTKtkTwiwTJdrZO/aYEJZwk3XQYRyrNQDWrv9qPc/Q2QA7RI+7JZJO7YgUhQlh/r5G92hCCLX2YiFINs2ixQXUf7ejJABtAt4TZvJovEXay+wCJlxO5GtTirhYI88X3v3jr1rzp5gKMdyYmqFIP+2/SdqsAiFQbI6pZMayjZ8XRlukwnDXA0A+uj4/c0qjtkhypFERhIpD4eWDaoWTp5gAxIwuWD9V6ciVD8uxeyxeccbrHrLAGORnTUq6rkLYO3ekksbkR0zVM/0kkD5EFnvVqW0bpz4waT0vbr1Sd10gBHG7oa1Zkg0YuDNhzg7yeXiCI066QBCsDWGWoc1pXynr/0dSfvLe5qUPfvvE69XScPcLQAVmcMSPMgF8+pg87AA9me+erVzgb1CZ08QIGATL8B2e3jPcZ0QtEDwOctOmmAowFyM3quqty/QB1I9/G5cwe35JUdc9T5OnmAIgHX+dLeBaqLN0VSZcs1KLyAzs656j900gBHOjoXqZM767LMnstUsnOOmq6TBhgiYKF+pS2RHyhrrqm66tRzOlmAIx0g0kKegaRvOuwDuXY3qk3dN6hTddIAQ8SeevVeWKLfc8JKlTE9gQM3qh5YrwqdNMCRCr6xZ898tT19kOmC0C15eY46TScNcJDYWac+K++WSJm0aJ34yD/c6Ue3zlVv00kDHGng+xs669VmDjB37FLJxN8wW87n49s6eYCDRN+tajzWn+08f0p1p2W3FL+BbHU6aYAjDbvmqq9yG5yvr0ol0v4F4vK92tGg/kUnDTBM2DlbfQFeQE/6g4UcB5Cqo2P2wb8jMMBhANZK9/IMJHVQeaDI+3hwRb6okwUYZkDuNek3TOSqEb2BOjVXJwtwpKBrjjp/d6PaLsRJGVRuRGBA730jXwb5ZkP3tepUrEef4QZPquwPQPaYzB7ZOT84yD1iwPeAd85T1+hbDf5gypWhxWp/d2Nw7nGosbNeTe+7WfWmWidZO92skljHXsn7fTppgJGMzkb1vl3zVBd37LyBZJCdprnqzuB/wR56wM07DkR6hv/cLXUMxFrVq7+9GZ9aPiKxvUGdLRsPKSfyPO/YO1/1ds5RM3Wyw4va2hJlPFzmh4n2yHM7a5Mlo6PWdFW1dkmoev2ScZXOd6XdBQIWKMGHBlOtkzw/Vq92dtSqk3SyACMZO+rVOUkMYiqZ+GpjDO7+voYRMohh5yJVteE5ZdjPqcq1z4VMp/2sWntkbdMbViQ0/e6kmnpXUk37dTJUua5XheNf0LF5satBnccbEKnjoHf19vCfCuhkAUYyOOt1zlVtXDNxMCXcJGRaNGI2HsLxb6hp9yRVRXtS1WxKlprOC+f+aO3IevWwaf2YJFKm44aaO5Oq3PovHZsXfXVqPIjTnj4OWMfOh6sdnO8dKeAt8T2NasWBBerB3kXqwT0NI2xL1oh/HZbJVdKKNcnSiP3sh65q+ycdOzJgWFerqZv6yVS1PqnC1td0bEEgabB2vZ3jcADjsOsGNS+ZDDYfAgwn3iRkChDg0CMgU4AAw4SATAECDBMCMgUIMEwIyBQgwDAhIFOAAMOEgExHMWo3j1Ixe4KKrZugZm6eoKYsK+6mAPNJQBkzfzdB1daO0jF5cfLkW8dLnQyTlr9F/1wcjKVlUq/0ISXMRJumWAd/64Fls30ZcKKx9ASJ8+tE2gvy9P9gyHT5irf58p6yemg3sKust/rjJUF/T8Vwk2lymzvOfp263intxffhkqXH+mVR3kPBNxuOcXVm3YRjUc7pk5YP053NWOsHVSTRrSLxbhVt7Vaxtr8pw/mojs2NsD0DCtENgbuhci3KaWlFeXkfU56AQS2JtTyqYu2ok/W2P1twvcDba5reVRJbcwXa3aYqUK/XBi9EW7pR3t9U9Z3fV5euKv4KS8w+Thn2Lapyndsv05mtqhaM0bFqVHj1x0sr2p4QmXl1Sv8TbTn7P1QyhZsuwti8ljJWu1TEmaxj84Pkq9loKtPehjHqb7OJsvhZs/EqZa5y3xVuNP1wWMgUsT6nqjZegTofkXH260RgPwy7E2NXM6rc+YzOkRvlLf8WirU/4JfFsTGabynqfqMQuW2LqzPx7pLKNd1l0eYrdexBwmw5D41KooIkFDCpZmxOhkznNh2bHdOsYyCM10XQ0VY3xBB4nyvc/DGdKjNoDU2nXa6p6LyhaXcnQxHrWp0iN6JNnyqpbH82xLoq17rt9trgB/zGPvFaTOW6h6GAP9S5C0O45b0YNCg8AuVjOj3yO/odiiSWo/ztbt9T6mZ9TGtY2d9oOhQyTWn+CvrZKWWzvmrkj7b0oZ7LdYqcGAt5QXEeU9N/445RJnlNvwefib+LsplWWMbxYMhkWN9Ge3tE/pRhxjFCQD2hWBsnvxt0zuzgmETbnnX1huMLvQHpx8Scwh6LJ+kMZ4mCrrntQZh5H8bLLk43ssJo+aQMjic4KFBJLP738TXW+3SKjBgVtWeFKtb2QkmTbkgguAqiws40lUxmvzrCi50miEghs85K5DHjTwpBcwFllpj2lVDmf8gAMy/rZfsp4NQgBEC7TNtVhmr8Vm79QpeUH+XWuyHk/b7QzfhOKNkX0cc7RCnZT4mjUuCTMpDZPL5AJotsKJZM5c1fQh27ZdIw0BfWW7l2J2bkr+oUOXGMaZ1XUgGLJnUiP9vJNldvHCwvfhrO7xCWS32eThRJplKj+Voofa+ML9ucqT6ZiPA7y/cmPcP+ZV4rU25NF5Jy3JkX5YZM60EdmxvGr09AHZ1+vfysXPcqxmyY/h1ORcvJaFibqpLZ12+g3G7OBdNaqKa6lyFDUDoo+R5RXg626WzVqbLDsJ7rJ9NalOE8rWOyY8rqL4J4+6QODhIHgcphWFfBpYDLlxJoXdkPxlOJqPAcxHKsBwpBKpnYRhk81oXfWI4rK+222LtCbNNVmOXCzk91CZlROJlCykh8Ge4ILFIKkWKte1BHYQ85VqDcCMiROllGWg6EDGs7fq8YIC/DvkHkSSWnRWZ9Xp5iyGTal4mye0SSSc15HfoyJbU+jPcv4AF1a31xx4nW0LAW65IyYyIm4rC1S9rKfEKI9dsKIkQ0/h6OlU8mTrCGdZ+OHSYY8Z/03xJGpzh4YbgGWXD8NOskWIc1ImSZwex7Q0bzXBk0CBGD9fJpP1yXfZ1CN4huknQK9SHPmIg1X8dmBtsTbXnFtWIkh8wq+1S5/T2dYhBC0dbZWAv0EwoDi9+eE1cmH9LJJANHC5TgIwlbSqLxb7v+tz3hxGjTO8vY/khipSy2c6FQMk1cekLItGFRIGOZOKCcFWs71ORVX9cp8sO0E+LSeO2XWdzZgnZmXtNFWqKQEV2u/jwMhZIp0vwBktUnEolS0b4dZVyoUwxEVeIdsIJ3Sfmsh/mira+KO5cFpxpLjy0xrM39lhP10FPg+j0fTHsl6uqTfNSJ2JpekLxRxw4PxsXsGSVVa/tcpWOnIATDXp3NXSmNNH8pxFmfaTnzhO1NYh04Y6MMun+jYk72/yphWCt8n5wzPmcZI36Gjs0Mw1rvKwbbyXpzEMlH2FqGtBAa8lHwaOOYqLPiyymbCRmRkUwyo3VgdjxOpyoehZLJSFzvKgz6yjbIhGOX69i8KINiw/3ZKgoqbaecW/tKI02X6CSZYdi/7VdUHQolk2H/yicGZVXRvksmzhw4sdo+rbSi5QW4hW4+TuqRONZPOZYJ9JoqN+gxRXCt229z7nDy4caIs1G8FWmfHtfIiuF9p99ZMfs4zIJ/dGd9No4zi7NDTGomUECVFJpWasNei4b+iM/nSP6pVPr4jTr1YBjWIn+3KCKzfY+KNp2pYwdhfFXTp0qjide1Muv22U/DKhSm1NGWe3wFhhAxs/Womjxb8elk4kxLMnPSKOKp00EohEyGVedOTK5rWQLlHh1pLu5F+Fy3pm4iUGZh6wFoVe62yw6cHlsvbyFkogsVbd3mk7eC3k3zOh2bE6GIdZs7UULGlHesrQN5P6yjB4Nra3pGnrvNybVqbbIskviATjEYfI6seuOufoPBCdx+Qo4Khh1h+1F/RnLJ9AIGffDsDWuFNdIvZTbgYFPBY87nRcmm6s5BkKVR52HOOjqXjwmx+OmlEecRn7h0DQ3r1ox1eTCdb/UrBpX6HuaJ6Nj8MKwWf0aiMDFDj4o0T9WxmZFOJvY31v443M2sLkhByECmc6dZ/Q8HRpzrxZcXItGSboKSWJvPq1p5vE5RGMoTVQPIJHIuYNPiKripJibH1DV0IWQyYE28pQJlTHmFV39cx+ZGzD4f6beJLnleh7E65zHJ2EjT1aGKdnhT7oTD+kDKRTp6MEwnZYdST4wRq/CjhaIQbv6G2xk0Tpi+fj8aeZ2O7UfVs2OgZJ3iw3tkql5zmoquOhGK94TMSGhwCGuV0ormL+lcPkCkS0L+Ah6d4pbsFCv7op2Hsob9k373AXVWru+Ashf85Cfa+QH0ZadPDHftgFk6B9LJxDYb1h06dujIQKaPz+LhJSwGz7I8i0RLKN9bHpLD2iLAQ8hS01rly0z6zDqtb+okuRFuqlTTUohYEJnglvrehiaT0fzvOjY/wtZTojsy2bVzMp6oYzLiHdOWnYTx2C16yDqRNxSJP//WTOthunKmjbWyt2mBMa1a/49Cd0SLxxS4WR5BWKHL4sHnTXT9DOclNy1cpojTPSZmuW9INazf++6fDKQ1+IWPRuvnfWUCEUOV7dtHR5qy705NWj4BirVXSMs8MsPaG3RsYZj8v+ORp8Mvg/Ub1j06NjPSyUTLZjiOjh06MpCpwbKOGQ3lkXUo3V7G0WWOtT2kzF8V/Uj7+Ij1Pkxa/WMp5XECs76lk+TGEG5AYHJaOMDtkrW0dYGOzg/D+ZMQkPlpZUz7yZzHK1xTRZzFvseBUII2j2bb0xFOnIqx7B04Mdp36thDAJ5+m/FXUpV2lGklPtGQdvZjOteo6vX7RGCwPiGzud7fqKA7JZbJnZkgkPtBhv6rGvJmnrghgmYdcCVC4TxnBFxUGg5P/P124e/iBGGsOQXC6z9fEGW279axmfGGkAnucMR+/J1TnfeHovHHfWVyJ6r7lbHqFJ2rOBirzpAx8MjEw81I/PVR+Q7TPRRJpgk1TWeOjTmv+fLFMgF/P316Teu7dJL8SCMTZP/X3GQCwtbZWJq83j8BcYziS9LPK0dHrIWhyjV9IhMGeUGMdZOOPkQw7Vn9QownR1e29p5U2TzwrTSGc7trteiicdHY/AMdw8Xr+4RkHETX/L424K4eNzoMe5tvbl2//CEdmxkumeCiHYVkQtmYcF4oMe2/+BOM5yKVr/qIzlE8OA5SliYTyFBiWL+eWOhbkIq1TLGW82Us2Xamp1WNFHgrwcNgMj2bl0yE6SzzzjulfuoWt+hTwa10Eo1pqAP0dKgThxSG8ws1A2sYEoUVU4GiiYt1rHtfLRJPiEKjUaFIYscY7v54YCeEILpT0ZZtqnzFu3WsUjM2jUO5r7odxkAz5Fv7HM1kghxApGfKInZCyOQpIyzWKKO5RecoHulkoszCdquOzY9iyWTGPy0bSj6ZZLIdvN7OhSGSqcSM/wzt2y91C5kwiYctX2fp8sLq/8XfZaTuGdafVTTHOeiwIAwrVLn2/+gWeELEQrZf2SlQClbiqBDcak0BbwGb9n2+UGQBbS3XsRAYNxOcrQPIZKzJ/X+SjmYyQU5Y2zw1cY59Asqu82XLdvIyZ7SINUcqhExULk0mktO0Hv3grAK3gYsk0/ga5+NlFZCTRyb0ryzqOOfMWDFOJ8mPoVom977dS35e7kiHrT/oWBA9YfqWi4FeVdi6QsceYvB6RbUeVLAZbshDUMZjJW5y0+dFmRnH9U7EuUt+T0XYjvlbkBwQ3ur14M4iPSJ0Kikvypp5/OrwylOlLE+paa7D9hodWxhGNJnsZ2O1sPjoZyja0iPK4N8eWNOByaT4/9phxM8IcUL0lBukKqts6zmpqin3FTEPRZKJpCmLYL3sTQaorzTWsv+YQrfGiaGSiSi3wiI3sUxt9JheOanKOkvyU+dSN0aqNvC2fe6D62GD6TzmC4UWhCf+PAOamCyFJWpwG50AyeJ94yoSgwZ6VLR5VkjOG6AQTBtre0AUk6AyekSjX21Y03OedBOXrTwegt0wQNCx9qfQlrN0ivy4HO7lgN08EgMWNBfeQDK5h7aQQyTxNcjMtcIklMivvQNpM1/HyYLjpyw7qSRsbXI3g1APg6tQhe3mhZtnFOXmEWbiGj8PlVbWgE2Ftzts/3HIZOIBb6qbKdv68VnqAnk6oad/DLmL57Qf1KF7UeB5UyThXi0Sdyz+mpwST9o8FgTZI7+5V1PQsMEu2thY/PRQtPVJLRD3NoThnhmUGs2WO6j4nfepeNBbCHg+IqYa+Vim5LUNHZsfEedaKJbrV8tuztq+kGnlfszkDSeThtH07ZBYf7aVhFqXLInE/3G8d/xQKMJ0b/TEJe1HmYWcq/DhRtO6xp/NGQoiU3yhuyGFNlPOHP9ctxhSwQNpM2VdUyyZJL+zzr2Bg/rR3lFYh46tsD45YAyrNvSCtMXdJDkolCfeIQPp+dvVG0Es3QDDcnfi5IaE/TjSZD5MNOz7+91BfJYnPnH69PgZZZWtO2TWZahav1VF89xM92BYX4aA+UCZLpOD69w2YNs9F0xYNhE08nIi4Ge+mwyHiUwn1Cx/S4lhPSmzKNNQOWRGtYt7M225c/WAS66uguW/DAq5hExnt7/drPPmJxOsXtU692DcIxMfMiwEUR63bBp4164YMhFRyLVyfZc3XugDx2sv5OdebO33sjKvG/n8Vc3dJvL8t/7l4DEGSlTCSj0lcmeoZeicgU7uFYWmYoatqM4yCGOi9q/kkQSSUj6dVejUlaKQMnNQmeCGFAr3+ad7fQVjG7hr8/2V+V09eVH+upddF4+KuZE7aFtSn5rNiMNlmQhOaLH2R7TsXOWUPC0/0yny4oRK63Mlsbb++4xQJpD0xVO99W82RO2PuB6JnnQYCiETwTNDuqa6b2j36zJ2eYC19xpXN3R9zFssmYAQJ/jUIwZv7BiETPZz/vrfAzdJDCeCNPXwfuagjLmQwffzPltXEORgFbOaN5Ozk5HEIpjHle46BwrJK0CmM03nGITR3E0yHPfEmZ3gbgt3VTzlEKtl5z5fSkOJac0UYnsConWsaH8IpMx6Q+A4Y9UpEM4Lsl3PdtM15cNg0fhndZLsOJxkIqbcfmaIdXuTAL+LwsEFKxDo+8O+ksoEREJBUbKBm0Gx9idcxUMeLxRIplKz+Sv9j7ywf2t7Q7HWxDtyKWbYqoYcYJV0Hsk3NDIdE7O1jqWU5QXqXHnzZYPW6Lz5w3t7nPCn3nWNXCgOW5WqWLc6G0oMp0IeCZdGyGAsxAx/k3xnYyvanpTt12wQV9He55OJN9L50BjzclAjLVi/2N/RqQuHYV3vDhZnTVoZuj/OE3Jj+XLMMKkhbF0cql6/xScDAycBw7Z0ablxuMk0sXZ0yGy+UdY9Xn/RlhAUe2yMSlEATOe7IcrfszK05rHWbWVR6+cn8C5lqrzMtrNQvvtIOMkj/UadzFeoZeKzXGYi7rv4CLyHGYrYbXJ3M6W+cVgihHj3k+1j+e4BvhuGSCa4tu9XsZZ9fn/9AHJVrtsvTy2nYlLrWzCmFe7/ynKWjKuwLsUEtF4IZ8ZrhsU6va3aOac0mnhehO8KZikqu1W+y5UNK/c5z0S7NMRn7WVQxM14EaFRBMdBClsH1BW3n6xTF4doYp4MOH16WhuZiZztaN/WAYG7OP6sDGGKuxp/BO15py4pNw43mQQY1EjL4gGKxiOJWNsjqgaKkAe18DJQ/haXkJCBWOe2ZMhd6L+SJi+uJzi23JzZGOKDiV7fCyUTcGx45anQnef6Nz9QrztGA+sznFfld6nT+RPq+02/RRsimXiOaWLSn643qzyZye2HuI26Brr2U+7kZdmr9fnnfLRhJfo5e6JtlyLfNYNcwiGDW8dUIApU3DQb6w58d8m1UafKDq6p5FEJdIpC8g6CQa4y095xMh+pHhpCKtw8W3a82D4hKMrmZ2oQRUC9HCz68RXtD6rJqwuvkxsUJKy3YSFkhG9/sBhEJufPZ/8AljwLzqqtHV0asZ4RhfYURIiN8SnkWRxa7Yp2dy0hZSA/5ZIuL7rwiB8Via+UfKb9oIw1x4/E4C5vgTiOj1REWy3Jx3ppKdLrY0B9oVj7XrlFY9inSfu894gY1ktFk4kotz+I/r4g5UtfEWru7IMOL9EpBoJuXtiZXBLDsqX8jg/Cit6MJUUN9PdsnWIYYNo3qxlb3INXukcMPD9yO/whnSo7ypv+E0pzQPJxoFgOP69+AAPm/HRiMa9nyoCxVYmrS6rWb4aQdshWOctODdxK56BUrLlPVa75urpsQXHPA/Gmcdh6Xs3c7CrTzC08pM7+vEyh4K7RD+532zjzPt66f+kj03PfEys1HchyXY8vS4YfPQRFyXPw7OHSm04sibZOgSx+J0Rmf3w56e9VGx7DuFbzsXDJw6dm0Wc1A7Ll2deU5k/L74Vi4sRSTEZLSyrXPMqHG2U8Uut0n316Wk2+/aOiC1w2RFtf49uxRO9gHYdEJsKwfuc+vQAiCani27Kurel+ms7MMTE+77Tx4rKYMxl9ryr4wdOCII9aoFAzMU2e2mTgd6O5KusTuOmga1C9oT8/Q/UmlJHnEfViwKd+WWZqHQyxtmkYoIN7+IsHwyxb9/u46UO8xZ0Kvt+gcp3bRn7qM7i84OLel6Xl5g1bl+rYwsDNpUg8qmKpY6o/uZZJxTexXjCap4IETFPUoXEqLqldeuyYaHyKjEdqnRLSFDza/DGpj2kP5gWivDzt7epxqWLYL/L/9OrYjDi20roY7uBPxvFB1wABAig1vqLl5JDJq0ncooc7K6Syr8x70yZAgAADMcqwpodquCblZgbXzHD3hnphOECANzOwBm3Vm2TuRk00YSm+0z5AgABFgM/jeTcwGKbdzaOH/K9dDhAgQAqiLT/zj3L0xkMomnh2LLfcAwQIUAD4BqTqjQtlo0GIxHPNhGy/l0WsSTpVgAABsmLS8rEhvuU32topZ1jcbPBuxMg78VoWy/Z+gAAB8oC30XmPjofA4ta1yYZDSaztRRWJ1+pUAQIEKAh86yt37sTFa9taVtH6G3liIUCAAEVCXqbCWzpOPd98dUG+f4EaIECAkQSl/h8mmq15k1yedAAAAABJRU5ErkJggg==;textShadow=1;" parent="1" vertex="1">
          <mxGeometry x="-1720" y="-456.67" width="80.5" height="32.43" as="geometry" />
        </mxCell>
        <mxCell id="lLmpeXdTmonKu4j5xGK4-149" value="" style="endArrow=classic;html=1;rounded=0;dashed=1;strokeColor=#007FFF;textShadow=1;" parent="1" edge="1">
          <mxGeometry width="50" height="50" relative="1" as="geometry">
            <mxPoint x="-2170" y="-735" as="sourcePoint" />
            <mxPoint x="-1924.5" y="-734.89" as="targetPoint" />
          </mxGeometry>
        </mxCell>
        <mxCell id="lLmpeXdTmonKu4j5xGK4-150" value="WD INTEGRATION NOT CONFIRMED" style="edgeLabel;html=1;align=center;verticalAlign=middle;resizable=0;points=[];textShadow=1;" parent="lLmpeXdTmonKu4j5xGK4-149" vertex="1" connectable="0">
          <mxGeometry x="-0.0805" y="5" relative="1" as="geometry">
            <mxPoint x="6" y="15" as="offset" />
          </mxGeometry>
        </mxCell>
        <mxCell id="NwiWy4_LtIeJi4y5TbyK-3" style="edgeStyle=orthogonalEdgeStyle;rounded=0;orthogonalLoop=1;jettySize=auto;html=1;exitX=1;exitY=0.5;exitDx=0;exitDy=0;entryX=0.101;entryY=0.697;entryDx=0;entryDy=0;entryPerimeter=0;strokeColor=#004C99;" edge="1" parent="1" source="lLmpeXdTmonKu4j5xGK4-153" target="lLmpeXdTmonKu4j5xGK4-183">
          <mxGeometry relative="1" as="geometry" />
        </mxCell>
        <mxCell id="lLmpeXdTmonKu4j5xGK4-153" value="" style="shape=image;html=1;verticalAlign=top;verticalLabelPosition=bottom;labelBackgroundColor=#ffffff;imageAspect=0;aspect=fixed;image=https://cdn2.iconfinder.com/data/icons/whcompare-servers-web-hosting/50/sftp-128.png;textShadow=1;" parent="1" vertex="1">
          <mxGeometry x="-924.5" y="-376.67" width="60" height="60" as="geometry" />
        </mxCell>
        <mxCell id="lLmpeXdTmonKu4j5xGK4-154" value="&lt;span style=&quot;background-color: rgb(204, 255, 255);&quot;&gt;&amp;nbsp; &amp;nbsp; &amp;nbsp;PAYMENTS FILE&lt;/span&gt;" style="edgeLabel;html=1;align=center;verticalAlign=middle;resizable=0;points=[];textShadow=1;" parent="1" vertex="1" connectable="0">
          <mxGeometry x="-1369.4970588235292" y="-485.17" as="geometry">
            <mxPoint x="33" y="13" as="offset" />
          </mxGeometry>
        </mxCell>
        <mxCell id="lLmpeXdTmonKu4j5xGK4-155" value="&lt;b&gt;FPS&lt;/b&gt;" style="edgeLabel;html=1;align=center;verticalAlign=middle;resizable=0;points=[];textShadow=1;" parent="1" vertex="1" connectable="0">
          <mxGeometry x="-1109.5047058823532" y="-424.24000000000007" as="geometry">
            <mxPoint x="-13" y="-42" as="offset" />
          </mxGeometry>
        </mxCell>
        <mxCell id="lLmpeXdTmonKu4j5xGK4-156" value="&lt;span style=&quot;background-color: rgb(204, 255, 255);&quot;&gt;&amp;nbsp; &amp;nbsp; &amp;nbsp;PAYMENTS FILE&lt;/span&gt;" style="edgeLabel;html=1;align=center;verticalAlign=middle;resizable=0;points=[];textShadow=1;" parent="1" vertex="1" connectable="0">
          <mxGeometry x="-1339.4970588235292" y="-416.67" as="geometry" />
        </mxCell>
        <mxCell id="lLmpeXdTmonKu4j5xGK4-157" value="&lt;span style=&quot;background-color: rgb(204, 255, 255);&quot;&gt;&amp;nbsp; &amp;nbsp; &amp;nbsp;PAYMENTS FILE&lt;/span&gt;" style="edgeLabel;html=1;align=center;verticalAlign=middle;resizable=0;points=[];textShadow=1;" parent="1" vertex="1" connectable="0">
          <mxGeometry x="-1339.4970588235292" y="-386.67" as="geometry" />
        </mxCell>
        <mxCell id="lLmpeXdTmonKu4j5xGK4-158" value="&lt;span style=&quot;background-color: rgb(204, 255, 255);&quot;&gt;&amp;nbsp; &amp;nbsp; &amp;nbsp;PAYMENTS FILE&lt;/span&gt;" style="edgeLabel;html=1;align=center;verticalAlign=middle;resizable=0;points=[];textShadow=1;" parent="1" vertex="1" connectable="0">
          <mxGeometry x="-1339.4970588235292" y="-326.67" as="geometry" />
        </mxCell>
        <mxCell id="lLmpeXdTmonKu4j5xGK4-159" value="&lt;span style=&quot;background-color: rgb(204, 255, 255);&quot;&gt;&amp;nbsp; &amp;nbsp; &amp;nbsp;PAYMENTS FILE&lt;/span&gt;" style="edgeLabel;html=1;align=center;verticalAlign=middle;resizable=0;points=[];textShadow=1;" parent="1" vertex="1" connectable="0">
          <mxGeometry x="-1339.4970588235292" y="-276.67" as="geometry">
            <mxPoint x="-4" y="-22" as="offset" />
          </mxGeometry>
        </mxCell>
        <mxCell id="lLmpeXdTmonKu4j5xGK4-160" value="Financial Institution" style="shape=image;html=1;verticalAlign=top;verticalLabelPosition=bottom;labelBackgroundColor=#ffffff;imageAspect=0;aspect=fixed;image=https://cdn4.iconfinder.com/data/icons/48-bubbles/48/04.Bank-128.png;textShadow=1;" parent="1" vertex="1">
          <mxGeometry x="-1229.5000000000002" y="-700.9899999999999" width="99" height="99" as="geometry" />
        </mxCell>
        <mxCell id="lLmpeXdTmonKu4j5xGK4-161" style="edgeStyle=orthogonalEdgeStyle;rounded=1;orthogonalLoop=1;jettySize=auto;html=1;entryX=0.546;entryY=0.006;entryDx=0;entryDy=0;entryPerimeter=0;strokeColor=none;curved=0;textShadow=1;" parent="1" source="lLmpeXdTmonKu4j5xGK4-160" target="lLmpeXdTmonKu4j5xGK4-147" edge="1">
          <mxGeometry relative="1" as="geometry" />
        </mxCell>
        <mxCell id="lLmpeXdTmonKu4j5xGK4-162" value="" style="shape=image;verticalLabelPosition=bottom;labelBackgroundColor=default;verticalAlign=top;aspect=fixed;imageAspect=0;image=https://static.vecteezy.com/system/resources/thumbnails/020/975/570/small/visa-logo-visa-icon-transparent-free-png.png;textShadow=1;" parent="1" vertex="1">
          <mxGeometry x="-1629.5" y="-700.99" width="76" height="34.86" as="geometry" />
        </mxCell>
        <mxCell id="lLmpeXdTmonKu4j5xGK4-163" value="" style="shape=image;verticalLabelPosition=bottom;labelBackgroundColor=default;verticalAlign=top;aspect=fixed;imageAspect=0;image=https://upload.wikimedia.org/wikipedia/commons/thumb/2/2a/Mastercard-logo.svg/1200px-Mastercard-logo.svg.png;textShadow=1;" parent="1" vertex="1">
          <mxGeometry x="-1729.5" y="-708.74" width="58.58" height="45.5" as="geometry" />
        </mxCell>
        <mxCell id="lLmpeXdTmonKu4j5xGK4-164" value="OR" style="text;html=1;align=center;verticalAlign=middle;whiteSpace=wrap;rounded=0;fontStyle=1;textShadow=1;" parent="1" vertex="1">
          <mxGeometry x="-1679.5" y="-700.99" width="60" height="30" as="geometry" />
        </mxCell>
        <mxCell id="lLmpeXdTmonKu4j5xGK4-165" value="" style="shape=image;verticalLabelPosition=bottom;labelBackgroundColor=default;verticalAlign=top;aspect=fixed;imageAspect=0;image=https://www.pngall.com/wp-content/uploads/5/American-Express-Logo-Download-Free-PNG.png;textShadow=1;" parent="1" vertex="1">
          <mxGeometry x="-1519.5" y="-715.9899999999999" width="108.76" height="60" as="geometry" />
        </mxCell>
        <mxCell id="lLmpeXdTmonKu4j5xGK4-166" value="&lt;b&gt;PARTNER PAYMENT NETWORK&lt;/b&gt;" style="verticalLabelPosition=bottom;html=1;verticalAlign=top;align=center;strokeColor=none;fillColor=#00BEF2;shape=mxgraph.azure.cloud;textShadow=1;" parent="1" vertex="1">
          <mxGeometry x="-1644.52" y="-810" width="135.02" height="79.33" as="geometry" />
        </mxCell>
        <mxCell id="lLmpeXdTmonKu4j5xGK4-167" value="OR" style="text;html=1;align=center;verticalAlign=middle;whiteSpace=wrap;rounded=0;fontStyle=1;textShadow=1;" parent="1" vertex="1">
          <mxGeometry x="-1569.5" y="-699.13" width="60" height="30" as="geometry" />
        </mxCell>
        <mxCell id="lLmpeXdTmonKu4j5xGK4-168" value="" style="endArrow=classic;html=1;rounded=0;strokeColor=#CC0066;strokeWidth=2;textShadow=1;dashed=1;" parent="1" edge="1">
          <mxGeometry width="50" height="50" relative="1" as="geometry">
            <mxPoint x="-1249.5" y="-690.67" as="sourcePoint" />
            <mxPoint x="-1489.5" y="-750.67" as="targetPoint" />
          </mxGeometry>
        </mxCell>
        <mxCell id="lLmpeXdTmonKu4j5xGK4-169" value="" style="endArrow=none;html=1;rounded=0;startArrow=classic;startFill=1;endFill=0;strokeColor=#CC0066;strokeWidth=2;textShadow=1;dashed=1;" parent="1" edge="1">
          <mxGeometry width="50" height="50" relative="1" as="geometry">
            <mxPoint x="-1249.5" y="-670.67" as="sourcePoint" />
            <mxPoint x="-1489.5" y="-730.67" as="targetPoint" />
          </mxGeometry>
        </mxCell>
        <mxCell id="lLmpeXdTmonKu4j5xGK4-170" style="edgeStyle=orthogonalEdgeStyle;rounded=1;orthogonalLoop=1;jettySize=auto;html=1;curved=0;strokeColor=#3399FF;textShadow=1;dashed=1;strokeWidth=2;" parent="1" source="lLmpeXdTmonKu4j5xGK4-163" target="lLmpeXdTmonKu4j5xGK4-147" edge="1">
          <mxGeometry relative="1" as="geometry">
            <Array as="points">
              <mxPoint x="-1700.5" y="-550.67" />
              <mxPoint x="-1700.5" y="-550.67" />
            </Array>
          </mxGeometry>
        </mxCell>
        <mxCell id="lLmpeXdTmonKu4j5xGK4-171" value="&lt;b&gt;CDF3 FORMAT&lt;/b&gt;" style="edgeLabel;html=1;align=center;verticalAlign=middle;resizable=0;points=[];textShadow=1;" parent="lLmpeXdTmonKu4j5xGK4-170" vertex="1" connectable="0">
          <mxGeometry x="-0.2494" y="1" relative="1" as="geometry">
            <mxPoint x="-1" y="-11" as="offset" />
          </mxGeometry>
        </mxCell>
        <mxCell id="lLmpeXdTmonKu4j5xGK4-172" style="edgeStyle=orthogonalEdgeStyle;rounded=1;orthogonalLoop=1;jettySize=auto;html=1;curved=0;strokeColor=#3399FF;textShadow=1;entryX=0.561;entryY=0.007;entryDx=0;entryDy=0;entryPerimeter=0;dashed=1;strokeWidth=2;" parent="1" source="lLmpeXdTmonKu4j5xGK4-162" target="lLmpeXdTmonKu4j5xGK4-147" edge="1">
          <mxGeometry relative="1" as="geometry">
            <mxPoint x="-2019.5" y="-550.67" as="targetPoint" />
            <Array as="points">
              <mxPoint x="-1591.5" y="-590.67" />
              <mxPoint x="-1669.5" y="-590.67" />
            </Array>
          </mxGeometry>
        </mxCell>
        <mxCell id="lLmpeXdTmonKu4j5xGK4-173" value="&lt;b&gt;VCF4 FORMAT&lt;/b&gt;" style="edgeLabel;html=1;align=center;verticalAlign=middle;resizable=0;points=[];textShadow=1;" parent="lLmpeXdTmonKu4j5xGK4-172" vertex="1" connectable="0">
          <mxGeometry x="0.1015" y="1" relative="1" as="geometry">
            <mxPoint x="49" y="-21" as="offset" />
          </mxGeometry>
        </mxCell>
        <mxCell id="lLmpeXdTmonKu4j5xGK4-174" style="edgeStyle=orthogonalEdgeStyle;rounded=1;orthogonalLoop=1;jettySize=auto;html=1;entryX=0.808;entryY=0.014;entryDx=0;entryDy=0;entryPerimeter=0;curved=0;strokeColor=#3399FF;textShadow=1;dashed=1;strokeWidth=2;" parent="1" source="lLmpeXdTmonKu4j5xGK4-165" target="lLmpeXdTmonKu4j5xGK4-147" edge="1">
          <mxGeometry relative="1" as="geometry">
            <Array as="points">
              <mxPoint x="-1469.5" y="-570.67" />
              <mxPoint x="-1624.5" y="-570.67" />
            </Array>
          </mxGeometry>
        </mxCell>
        <mxCell id="lLmpeXdTmonKu4j5xGK4-175" value="&lt;b&gt;AMEX FORMAT&lt;/b&gt;" style="edgeLabel;html=1;align=center;verticalAlign=middle;resizable=0;points=[];textShadow=1;" parent="lLmpeXdTmonKu4j5xGK4-174" vertex="1" connectable="0">
          <mxGeometry x="0.3883" y="-4" relative="1" as="geometry">
            <mxPoint x="88" y="-16" as="offset" />
          </mxGeometry>
        </mxCell>
        <mxCell id="lLmpeXdTmonKu4j5xGK4-176" value="Credit Card Transactions" style="text;html=1;align=center;verticalAlign=middle;whiteSpace=wrap;rounded=0;shadow=1;textShadow=1;" parent="1" vertex="1">
          <mxGeometry x="-1440" y="-640" width="226.05" height="10" as="geometry" />
        </mxCell>
        <mxCell id="lLmpeXdTmonKu4j5xGK4-177" style="edgeStyle=orthogonalEdgeStyle;rounded=1;orthogonalLoop=1;jettySize=auto;html=1;entryX=0.421;entryY=1.002;entryDx=0;entryDy=0;entryPerimeter=0;strokeColor=#007FFF;align=center;verticalAlign=middle;fontFamily=Helvetica;fontSize=11;fontColor=default;labelBackgroundColor=default;endArrow=classic;curved=0;textShadow=1;dashed=1;strokeWidth=1.5;exitX=0.193;exitY=1.051;exitDx=0;exitDy=0;exitPerimeter=0;" parent="1" source="NwiWy4_LtIeJi4y5TbyK-15" target="lLmpeXdTmonKu4j5xGK4-147" edge="1">
          <mxGeometry relative="1" as="geometry">
            <Array as="points">
              <mxPoint x="-749" y="-197" />
              <mxPoint x="-1694" y="-197" />
            </Array>
            <mxPoint x="-750" y="-270" as="sourcePoint" />
          </mxGeometry>
        </mxCell>
        <mxCell id="lLmpeXdTmonKu4j5xGK4-178" value="&lt;span style=&quot;background-color: rgb(230, 255, 204);&quot;&gt;BANK STATEMENTS&lt;/span&gt;" style="edgeLabel;html=1;align=center;verticalAlign=middle;resizable=0;points=[];textShadow=1;fontFamily=Helvetica;fontSize=11;fontColor=default;labelBackgroundColor=default;fillColor=none;gradientColor=none;" parent="lLmpeXdTmonKu4j5xGK4-177" vertex="1" connectable="0">
          <mxGeometry x="0.1158" y="1" relative="1" as="geometry">
            <mxPoint x="-47" y="-4" as="offset" />
          </mxGeometry>
        </mxCell>
        <mxCell id="lLmpeXdTmonKu4j5xGK4-180" style="edgeStyle=orthogonalEdgeStyle;rounded=1;orthogonalLoop=1;jettySize=auto;html=1;entryX=0.579;entryY=1.008;entryDx=0;entryDy=0;entryPerimeter=0;strokeColor=#007FFF;align=center;verticalAlign=middle;fontFamily=Helvetica;fontSize=11;fontColor=default;labelBackgroundColor=default;endArrow=classic;curved=0;textShadow=1;dashed=1;strokeWidth=1.5;exitX=0.067;exitY=1.051;exitDx=0;exitDy=0;exitPerimeter=0;" parent="1" source="NwiWy4_LtIeJi4y5TbyK-15" target="lLmpeXdTmonKu4j5xGK4-147" edge="1">
          <mxGeometry relative="1" as="geometry">
            <Array as="points">
              <mxPoint x="-790" y="-227" />
              <mxPoint x="-1665" y="-227" />
            </Array>
            <mxPoint x="-790" y="-270" as="sourcePoint" />
          </mxGeometry>
        </mxCell>
        <mxCell id="lLmpeXdTmonKu4j5xGK4-181" value="&lt;span style=&quot;background-color: rgb(230, 255, 204);&quot;&gt;PAYMENT ACKNOWLEDGEMENT&lt;/span&gt;" style="edgeLabel;html=1;align=center;verticalAlign=middle;resizable=0;points=[];textShadow=1;" parent="lLmpeXdTmonKu4j5xGK4-180" vertex="1" connectable="0">
          <mxGeometry x="0.1922" y="-3" relative="1" as="geometry">
            <mxPoint x="18" as="offset" />
          </mxGeometry>
        </mxCell>
        <mxCell id="lLmpeXdTmonKu4j5xGK4-182" value="&lt;b&gt;BACS&lt;/b&gt;" style="edgeLabel;html=1;align=center;verticalAlign=middle;resizable=0;points=[];" parent="lLmpeXdTmonKu4j5xGK4-180" vertex="1" connectable="0">
          <mxGeometry x="-0.2395" y="-2" relative="1" as="geometry">
            <mxPoint as="offset" />
          </mxGeometry>
        </mxCell>
        <mxCell id="lLmpeXdTmonKu4j5xGK4-183" value="" style="shape=image;html=1;verticalAlign=top;verticalLabelPosition=bottom;labelBackgroundColor=#ffffff;imageAspect=0;aspect=fixed;image=https://cdn4.iconfinder.com/data/icons/48-bubbles/48/04.Bank-128.png;textShadow=1;" parent="1" vertex="1">
          <mxGeometry x="-810.0000000000002" y="-415.67" width="99" height="99" as="geometry" />
        </mxCell>
        <mxCell id="lLmpeXdTmonKu4j5xGK4-184" value="" style="shape=image;verticalLabelPosition=bottom;labelBackgroundColor=default;verticalAlign=top;aspect=fixed;imageAspect=0;image=https://www.greatcompgarden.co.uk/wp-content/uploads/2022/05/SEW_Logo_Horizontal_Colour_RGB.png;" parent="1" vertex="1">
          <mxGeometry x="-830" y="-971.69" width="320" height="72.32" as="geometry" />
        </mxCell>
        <mxCell id="NwiWy4_LtIeJi4y5TbyK-5" style="edgeStyle=orthogonalEdgeStyle;rounded=1;orthogonalLoop=1;jettySize=auto;html=1;curved=0;strokeColor=#CC0066;dashed=1;strokeWidth=1.5;" edge="1" parent="1" target="lLmpeXdTmonKu4j5xGK4-183">
          <mxGeometry relative="1" as="geometry">
            <mxPoint x="-871.1200000000003" y="-529.7142857142856" as="sourcePoint" />
          </mxGeometry>
        </mxCell>
        <mxCell id="NwiWy4_LtIeJi4y5TbyK-8" style="edgeStyle=orthogonalEdgeStyle;rounded=1;orthogonalLoop=1;jettySize=auto;html=1;entryX=0.5;entryY=0;entryDx=0;entryDy=0;curved=0;strokeColor=#CC0066;dashed=1;strokeWidth=1.5;" edge="1" parent="1" target="NwiWy4_LtIeJi4y5TbyK-6">
          <mxGeometry relative="1" as="geometry">
            <mxPoint x="-871.1200000000003" y="-529.7142857142856" as="sourcePoint" />
          </mxGeometry>
        </mxCell>
        <mxCell id="NwiWy4_LtIeJi4y5TbyK-9" style="edgeStyle=orthogonalEdgeStyle;rounded=1;orthogonalLoop=1;jettySize=auto;html=1;entryX=0.5;entryY=0;entryDx=0;entryDy=0;curved=0;strokeColor=#CC0066;dashed=1;strokeWidth=1.5;exitX=1;exitY=0.5;exitDx=0;exitDy=0;" edge="1" parent="1" source="NwiWy4_LtIeJi4y5TbyK-43" target="NwiWy4_LtIeJi4y5TbyK-7">
          <mxGeometry relative="1" as="geometry">
            <mxPoint x="-871.1200000000003" y="-529.7142857142856" as="sourcePoint" />
          </mxGeometry>
        </mxCell>
        <mxCell id="NwiWy4_LtIeJi4y5TbyK-6" value="" style="shape=image;html=1;verticalAlign=top;verticalLabelPosition=bottom;labelBackgroundColor=#ffffff;imageAspect=0;aspect=fixed;image=https://cdn4.iconfinder.com/data/icons/48-bubbles/48/04.Bank-128.png;textShadow=1;" vertex="1" parent="1">
          <mxGeometry x="-700.0000000000002" y="-415.67" width="99" height="99" as="geometry" />
        </mxCell>
        <mxCell id="NwiWy4_LtIeJi4y5TbyK-7" value="" style="shape=image;html=1;verticalAlign=top;verticalLabelPosition=bottom;labelBackgroundColor=#ffffff;imageAspect=0;aspect=fixed;image=https://cdn4.iconfinder.com/data/icons/48-bubbles/48/04.Bank-128.png;textShadow=1;" vertex="1" parent="1">
          <mxGeometry x="-590.0000000000002" y="-415.67" width="99" height="99" as="geometry" />
        </mxCell>
        <mxCell id="NwiWy4_LtIeJi4y5TbyK-10" value="Option 1&lt;div&gt;&lt;br&gt;&lt;/div&gt;&lt;div&gt;&lt;br&gt;&lt;/div&gt;" style="rounded=1;whiteSpace=wrap;html=1;opacity=30;fillColor=#99FFFF;" vertex="1" parent="1">
          <mxGeometry x="-1530" y="-470" width="49.5" height="280" as="geometry" />
        </mxCell>
        <mxCell id="NwiWy4_LtIeJi4y5TbyK-11" value="Option 2" style="rounded=1;whiteSpace=wrap;html=1;opacity=30;fillColor=#99FFFF;" vertex="1" parent="1">
          <mxGeometry x="-1290" y="-541" width="49.5" height="40" as="geometry" />
        </mxCell>
        <mxCell id="NwiWy4_LtIeJi4y5TbyK-12" value="" style="shape=image;verticalLabelPosition=bottom;labelBackgroundColor=default;verticalAlign=top;aspect=fixed;imageAspect=0;image=https://fcsa.org.uk/wp-content/uploads/2022/04/HMRC-Logo-1820x1024.png;imageBorder=#333333;" vertex="1" parent="1">
          <mxGeometry x="-2068.89" y="-465.67" width="88.89" height="50" as="geometry" />
        </mxCell>
        <mxCell id="NwiWy4_LtIeJi4y5TbyK-13" style="edgeStyle=orthogonalEdgeStyle;rounded=1;orthogonalLoop=1;jettySize=auto;html=1;entryX=1.125;entryY=0.56;entryDx=0;entryDy=0;entryPerimeter=0;startArrow=classic;startFill=1;strokeColor=#1A1A1A;align=center;verticalAlign=middle;fontFamily=Helvetica;fontSize=11;fontColor=default;labelBackgroundColor=default;endArrow=classic;curved=0;strokeWidth=2;" edge="1" parent="1" source="lLmpeXdTmonKu4j5xGK4-147" target="NwiWy4_LtIeJi4y5TbyK-12">
          <mxGeometry relative="1" as="geometry" />
        </mxCell>
        <mxCell id="NwiWy4_LtIeJi4y5TbyK-14" value="&lt;font style=&quot;font-size: 13px; color: rgb(51, 51, 51);&quot;&gt;E-Filing&lt;/font&gt;&lt;div&gt;&lt;font style=&quot;font-size: 13px; color: rgb(51, 51, 51);&quot;&gt;Group VAT Reg.&lt;/font&gt;&lt;/div&gt;" style="rounded=1;whiteSpace=wrap;html=1;opacity=40;fillColor=#00CCCC;strokeColor=#001DBC;fontColor=#ffffff;" vertex="1" parent="1">
          <mxGeometry x="-1922.73" y="-491.3" width="120" height="40.63" as="geometry" />
        </mxCell>
        <mxCell id="NwiWy4_LtIeJi4y5TbyK-15" value="&lt;font style=&quot;color: rgb(230, 230, 230);&quot;&gt;Financial Institutions&lt;/font&gt;" style="rounded=1;whiteSpace=wrap;html=1;fillColor=#0050ef;fontColor=#ffffff;strokeColor=#001DBC;opacity=40;" vertex="1" parent="1">
          <mxGeometry x="-811" y="-318.67" width="320" height="30" as="geometry" />
        </mxCell>
        <mxCell id="NwiWy4_LtIeJi4y5TbyK-19" style="edgeStyle=orthogonalEdgeStyle;rounded=1;orthogonalLoop=1;jettySize=auto;html=1;entryX=0;entryY=0;entryDx=0;entryDy=115.5;entryPerimeter=0;curved=0;strokeColor=#1A1A1A;strokeWidth=2;align=center;verticalAlign=middle;fontFamily=Helvetica;fontSize=11;fontColor=default;labelBackgroundColor=default;endArrow=classic;" edge="1" parent="1" source="NwiWy4_LtIeJi4y5TbyK-18" target="lLmpeXdTmonKu4j5xGK4-147">
          <mxGeometry relative="1" as="geometry">
            <Array as="points">
              <mxPoint x="-2032" y="-405" />
            </Array>
          </mxGeometry>
        </mxCell>
        <mxCell id="NwiWy4_LtIeJi4y5TbyK-18" value="HiAffinity&lt;div&gt;Billing System&lt;/div&gt;" style="shape=cylinder3;whiteSpace=wrap;html=1;boundedLbl=1;backgroundOutline=1;size=15;fillColor=#76608a;fontColor=#ffffff;strokeColor=#432D57;" vertex="1" parent="1">
          <mxGeometry x="-2082.32" y="-356.67" width="100" height="80" as="geometry" />
        </mxCell>
        <mxCell id="NwiWy4_LtIeJi4y5TbyK-21" value="&lt;font style=&quot;font-size: 13px;&quot; color=&quot;#333333&quot;&gt;Customer Billing&lt;/font&gt;&lt;div&gt;&lt;font style=&quot;font-size: 13px;&quot; color=&quot;#333333&quot;&gt;Journal Lines&lt;/font&gt;&lt;/div&gt;" style="rounded=1;whiteSpace=wrap;html=1;opacity=40;fillColor=#00CCCC;strokeColor=#001DBC;fontColor=#ffffff;" vertex="1" parent="1">
          <mxGeometry x="-2010" y="-397.3" width="120" height="40.63" as="geometry" />
        </mxCell>
        <mxCell id="NwiWy4_LtIeJi4y5TbyK-22" value="" style="shape=image;html=1;verticalAlign=top;verticalLabelPosition=bottom;labelBackgroundColor=#ffffff;imageAspect=0;aspect=fixed;image=https://cdn3.iconfinder.com/data/icons/document-icons-2/30/647714-excel-128.png" vertex="1" parent="1">
          <mxGeometry x="-1995.74" y="-635.04" width="39.55" height="39.55" as="geometry" />
        </mxCell>
        <mxCell id="NwiWy4_LtIeJi4y5TbyK-28" value="" style="shape=image;verticalLabelPosition=bottom;labelBackgroundColor=default;verticalAlign=top;aspect=fixed;imageAspect=0;image=https://img.freepik.com/vecteurs-premium/dollar-euro-pound-yen-icones-devise-usd-eur-gbp-jpy-symboles-signe-argent-pour-web-application_654297-331.jpg;" vertex="1" parent="1">
          <mxGeometry x="-2068.89" y="-656.49" width="73.15" height="61" as="geometry" />
        </mxCell>
        <mxCell id="NwiWy4_LtIeJi4y5TbyK-29" style="edgeStyle=orthogonalEdgeStyle;rounded=1;orthogonalLoop=1;jettySize=auto;html=1;entryX=0.145;entryY=0;entryDx=0;entryDy=4.35;entryPerimeter=0;dashed=1;strokeColor=#3399FF;strokeWidth=2;align=center;verticalAlign=middle;fontFamily=Helvetica;fontSize=11;fontColor=default;labelBackgroundColor=default;endArrow=classic;curved=0;" edge="1" parent="1" source="NwiWy4_LtIeJi4y5TbyK-22" target="lLmpeXdTmonKu4j5xGK4-147">
          <mxGeometry relative="1" as="geometry" />
        </mxCell>
        <mxCell id="NwiWy4_LtIeJi4y5TbyK-30" value="&lt;font style=&quot;color: rgb(26, 26, 26);&quot;&gt;Currency Exchange&lt;/font&gt;&lt;div&gt;&lt;font style=&quot;color: rgb(26, 26, 26);&quot;&gt;EIB Load (if needed)&lt;/font&gt;&lt;/div&gt;" style="rounded=1;whiteSpace=wrap;html=1;opacity=40;fillColor=#00CCCC;strokeColor=#001DBC;fontColor=#ffffff;" vertex="1" parent="1">
          <mxGeometry x="-1940" y="-610" width="120" height="40.63" as="geometry" />
        </mxCell>
        <mxCell id="NwiWy4_LtIeJi4y5TbyK-31" value="" style="shape=image;verticalLabelPosition=bottom;labelBackgroundColor=default;verticalAlign=top;aspect=fixed;imageAspect=0;image=https://static.vecteezy.com/system/resources/thumbnails/004/572/128/small/invoice-line-icon-logo-illustration-free-vector.jpg;" vertex="1" parent="1">
          <mxGeometry x="-1980" y="-237" width="40" height="40" as="geometry" />
        </mxCell>
        <mxCell id="NwiWy4_LtIeJi4y5TbyK-34" value="" style="shape=image;verticalLabelPosition=bottom;labelBackgroundColor=default;verticalAlign=top;aspect=fixed;imageAspect=0;image=data:image/png,iVBORw0KGgoAAAANSUhEUgAAAKAAAAA3CAYAAACLrEHWAAAAAXNSR0IArs4c6QAAAARnQU1BAACxjwv8YQUAAAAJcEhZcwAAEnQAABJ0Ad5mH3gAABRWSURBVHhe7Z15fFTV2ce/585kX4CwC0kmkwRISMImEAR9RZayqwWURaW8VmlJKIq1YltcaNWCCApKBaEtgla2fto3EFwCERQ3pOwIQgKyhySEMMlkMpm5z/tHwshckpCwKs7385lPZs7znHPvnPO7zz3b3CgREXz4uEFoxgQfPq4nPgH6uKH4BOjjhuIToI8bivINQq6ccoGTNicnSis4VeIg3+6itMJFnl2nrFyn1O3GoQS3LiAmRARdCcoEQUoIViaCAgMID9BpajbTINBEZLgfjYP9uSU0kAj/mzdO+ARYBypEyLc7OW13k28rZ19JOcfPVnC0qITCMjfFuhM/f3+CzX4E+gcQjhCkmQgPNmM2u/HzUyjRCDVplOlu3OLG6QanW2GzO7C7NGxuoaTCSYkLbE6htFywu0B3lRNidhLZKJSYhqHENwogsYGZyNAgWgT70STEn1C/H69AfQKsgXId1h89y8oDZ1h/KA+X20RqywjuiAync6swOjUJIsxkzHX1yS9zsyW/lC3Hi/jiWCkbTxThMGlgCsFUIQSqUhJbNGRcXAuGtgklMsTfWMQPGp8AAV0gp6iczCP5bDtVSuPQYCLDNNqFB9EqNIDmIX40DvLDpJQx63XHqQsFZRWcLC3nuM3J1gIHG4/b2XLchuAmooGibXAYHRqH0M8aTJ/oCH7IkvzJCrDY6Wbv6RL2l5RwIK+cRgF+9IppSKfmYQQYnX8ElLh1Pj1WRPbhM3xdKOwtdpBfqhMubu6ODWZQXDM6twghJiwQ7cZfRx5+cgK0V+hM/3w/Bbrid52iadMgyOhy05B15CyztxTw8fFiypRgklA6NrMxu4eVO6IbG91vCD8JAdpdOu/vPwn+ZlqFBdEuIoQG/tehA/cD4WSpk235pSw/UMAH+20Ui0aroBB6W2BCSktubRZqzHLduKkFePycndxiJ7aSCu6Mb0yw+cc7WrxanCyr4J09p1m938GOIjsmt86d0f5MTGnJHZHhhFznEfVNKcDicicZ355kUFwrIoLMRrOPKvYUlvNo1lG+ynPhFhuWAI13h8WReksDo+s146YSoK3CSbHDSZDZTOOgQKPZRzW4dGFnvo3Xdpxm5b5SnP52ujYM5ulurRlmvfb9xJtGgG5dp8zlItT/hzzp8MNmy8lS/vD1ST45eg5xCWPiQ3kqNZK2jYKNrleNm0aAPq4eG48VM3LNUYqdZSgzzL2tJY92bG10uyr4BOijWgocLt7cU8hLW0/jcjm5q5k/8/u1IabB1Z0l9QnQR61sOFLMYxsPsafIRXSIPwv7RdI3qpHR7bLxCdDHJbFVuOm/aj9b8srApHi7TyRjEpsa3S6L6zvp8xNl6dKl3Jbag9u6dWfz5s1GsweHw8HChQtZs2aN0XTFZGdnk5qaSvfu3dmwfr3RXCthfiY+HZXI090bY9J0fpl9jBe/Om50uyxuSgHqum5MuqHY7XZO5eWRdyoPZ3m50QyAiDB2zFhe/ssMpkx+jC+//NLockU4HA7y8vLIzzuNw+Ewmi+JScGfeliY2asFFUr449dFTP/iykV40wlw8aJFpKelGZNvLCIoETBpNV4cuq7z361bUXrl9pyrLUBEMAmYRcEVdLomd2jN23e2xCQOnt92ird25Rld6sVNI8CjR4/SPjGRl/78Ag57mdF8Q1GAJqCk5rY3mUwse/cd2iYncvtdd/Lwww8bXa4QhaLq+Fe4G2Z0Ykue79IMU7lG2idH+PBwkdGlztw0AqyoqKDUbkeUQq6wgq8+ynNetZ1az549ycjIYPHixYSEhBjNV4xAZd3UdBXUg6mpUYxJbkSFDunZuRwrcRpd6sRNI0ClFJpbvr/Kf0ioqoa/wchVPA8NmNOrNY1Mdg6W6jy+/pDRpU7UeRpmz549zJw5E7Om0aVzFyZOSje6APDdd9/x3HPPsWDBAvxrWBZbsmQJmzZtQlOKOXPmEBoWBsDp06dZ+vZStm3bRkF+PoJg0kw0b96MXrffzqjRo6uNDC+88AI5Bw6yKftjUIomzZrStWtXpEqKSilmzJxJcPDFS0pHjx7l74v/xu6duyi2nUMpRWhYKPHx8YwaNYoOHTsas2Cz2XjyyScxm83Ex8czefJktm3bxlsLF3L40GF0XSc0LJS3ly4lODiYhQsWMOMvMwBY+NZC+vTt61Xe7Nmzyc3NxSSVUTIoOJgZMyv9z7Ns2TK++OILhg8fTu/evTl06BCvzpnD4ZxcHOVOlFnDYrEwfvx4unfv7pUXYF3mOtLTJgKKefPmMWjIYC+73W5n2rRplJeXIyJMmTKF2NhYL5/q2F1QSs+VB1HKzeaRbWnf+OL2qRWpI06nU7p06iwxrSOlc0oHsdvtRhcREVm0aJFYrVbZ8tVXRpNIVTm3pfaQeItV7h8x0pOelZUliW3bidUSI9ZoS+VfS4zExlglLjpG4iItMnTAIDny3RGv8kRE+vXr5/GPi658nf9stcRIm7h4OXv2rFeeiooKyVy7Vjomp0hcdIzEW6wSa7FKnDW28pgxVmkb30Zmz3rlou9aUFAgka1bizU6WkaPGiXZ2dnSISlZYqMtnrKGDBrs8V/w5puec8n66COvskRERo4YKdaoaGkTbZU4i1W6dO5sdJEnnnhCYmJipFu3brJp4ybplNJBLFFRYo2ySJzFKtaYGIm1WCWhXTvZtGmTMbtkrs0Uq6WyXtdmrDGaZVJ6usREW8QaHSMzZ840mmtlTOa3Yp63TVKW7hCHy20010qdb8F+fn7cc889aJqJouJi1tcwl7Rw4UKUwJqMDKMJgA0bNpB34iQaihEjRnjSLRYL5U4nIkJIaCh9+/YlfVI6Xbp0QUQwKcU3e/by2ylTvMoDeOCBBxj7wFjQdZSAJdrCpN9MIj09nfT0dH498dcEBHgvIWVkZDBpYjqlxTYEuOtn/Xht3mu8NncuQ4YMRgC3y8Vf589n4YIFXnk5P6hwC4dzDzFu3DhsxecY/4vxLF7yd3r+z+0MGjzImKVGkpKS6NmzF+ZAf0SBVkNPUQGF+fk8PH48tuJzDBk6lDcXLWTac8/SOCICDSh3lDN+/HhOnjxpzF4jc+bMISMjAw1F504dmVJNHdfGsz1aoyk3u4t1dp4uNZprx6jI2vji888ltiq6pKelGc2yJiNDYiKjJD4yRpLaJsjp06eNLjIpLU3irbESF2OV3JxcL9ubb74pX331lTgcDq/0gwcOSMekZIm3WCWxTVvJr6bc3JxciY6MFGu0RcY/NM5o9mLnzp2SlJAo8VEx0v+uPrJ3716ji3y7f7/0ubO3tImNkzZx8bLtv9s8toKCAomJjpa4aIvERsdIUvv2snfPHq/8TqfT8/5SEfA8o0eNEqslRrp0ujgCTnn8cU+UHDJ4iOzbt8/LXlFRIeMeeFDiYiqj+Afvv+9lrykCvr9uncTGWMVqiZERPx/udd71Yczag2J6fZtM+/Ko0VQrdY6AAO3atcM/MAClFLt37Taa+ee772Kish9jdzh49513jC7s2LETgMjISKIt0V62CRMm0LVr14uiVWxcHNNffAFd13E6nWRmZnrZL8Qz0quF+a+/QXlpGboS/vzSiyQkJBhdiG/ThmnPPoOu67hdLpb/859GF0BhMpmYN28eCYmJXhY/Pz+vz1eKAG4FLg2mTfsjbdu29bKbzWZG3DcSXdcREXbtvrh9jOzYsYMnf/skSimioqKYNfuVyz7v0QmNEXT+s68IvW7DCqjvKLhBw4aMGDkCXXdz7OjRi8L8rh07EQX+Af4o0Xk/c52Xfcf27Zw8cQKAqb9/Gk2r++GHDh2KyWRCodj86cXLWYKgqbqVt2PHdgRo2qQpXbt1M5o9JKekIFWDmIM5OUYzAK1at+LO3r2NyVcdReUkskmocXCXlJzsmec5cazmVYrzg7NJaenYbDZ0XWfe668THe0dEOpDcpNAxF3Bt6VOTpRWv9pTHXVrsQt47PHHCQwMQoCXXnjRkz5r5suUlpTQvHkLPtyQRVBQMLk5uWzfvt3jM/356QA0bdqUfv37e9Iv5MyZMzz/7HMMGzaM7t27k5KUTNcutzJ08BCPT02rCTV0nbw4c+YMhafyAdAVpKWlefqK6WlpTJpY+UpPS+MPTz+N2+1GqkaJ1dGsWTNj0jVBqs63hm8OQHBwMLpbx6RVs+LiqRvBZrMxbMhQTpw4gaZptGjRnLbtvCNqfWkVGkArfzdOl5l9Z66hACMiIoiPj0dTisy1azl37hxFRUWVHXWl0euO22nVujVJKSkgwjN/+ANut5vjx4+zbds2RIT2SUmoan7knZGRQY9u3Vn69tvs2b2bMrudJk2bEBISTE5ODt/PGNU9xBs5lJNbWY6C/MIC1q1bx7rMdazLzCRz7VrWrV1L5tq1ZK5Zywfvf4CqEnxNUcekXd9f11VTbR6UUqBUpfhq8BOBxYsWs3fPnsoPwOnT+azPyjK61guzUqRGNsak+XHMVmE010i9BQjQLbV7VSMq9n3zDdu3b0cXQRT87yO/BODe4fciIuzbu4/9+/ZVfmFAF2HAwAGGEmH58uU8/thjiAhK03jyt0+yc9cuNmRn8/GmTezd9w1msxmlFLp++QJ06250k0I0xfB7f86K5ctZvvw9lq9YwYqVK3lv1UpW/ms1qy58rV7FjJkzjUVdV1TVyFurLQQCouvoIhfX0QUfc3NzQSlmzX6F0JAQ3G43v3/6acrKrmwJMyoiHJO4cbkucZIXcFkCHDFiBFQtK23atIl3li5DRLirTx9P53jY3XcTFR0FwIfvf8DqVavQNI2GDRsycNDFUxTzX38DdEEpxdvLlvKrib82utR69cP3lVybW3iDBohUVlB5eTm3du1a+br1Vs/7zl26XPRq07aNsai646WF2s6uZs4PQtyXarFLFK+UIiAggFmvzGLosGFM//Of0DSN4uJzPP/c80b3ehHsr+NWEFCPn7/W3fMC2rZtS4cOHRFg9apVZGdnAzB27BiPT2BgIGMffBCAJf9YwqbsjWgCgwcPJijI+2kEubm5HD1yBHSdn48YTo8ePbzs56ltnVcBepWwalvcadeuHYGBgYgIn376SY3boy6NqldHQETQdR3tkldR9SjAJJVRsHZqL19EGPeLcdxz772YTCZ+NmAACQntAFiT8X/k1jDYqgsOp45LFK3Cq++uVMdlCRBg5MiRAOTnF6CUwmw2k5rqLZw+ffsiIpSWlOByuQDo/7OLBx+7du2quoUrhg4dZjR7kKoKrK4NBVBVo+BL3Uri4yuj2dmzxZ5poWuJUBnZlVK43G6juU54ImA1372+JCcne94HBgaycvVqQkKCKStzMGzI0EvWX00cKyrBrCAhou7LcZctwC63dsF9QWU+8+wzBBp+ixsZ2Zo+/fpURgpNoTRFSkqKlw9VFaI0hSBkffSh0UxZWRkTJ07E7XKhoaioqBTzhYSHh6NMGig4ePBgrZU48r6RUCWKqb/7HQcPHjS6AJCXl8eHH31kTK43zZu3gKrb37/+tdporhOqqrEuHQHrT2BgIA8+9BAAjvJylvzjH0aXS1KhC598d5YOEW5aBNd9YHbZArTGxtK6dWtEdJo2bcrYBx4wuqA0jRdnzMA/MAARYfCwoYQ3uPhX91arleioaJTSWLJkCSuWL2f//v3k5OTw8ccfM+GRR/hw7brK56gBn3/+OTabzauMJk2acNtttwFwpvAMw4YMZX1WFlu//prs7Gz+8+//eHzHjB3LwIEDEREOf3eY+0aM5K/z5/PZZ5+xdetWPtu8mXlz5zFo4ECemDKFwsLCC45Uf+Li4jzvsz7KYvJvJvNxVbelXlQO3q8Jkx97jIR27dCU4o3X3+DAgQNGl1o5bi8nzx3C/fHNq71D1cRlC1DTNKY+PRWlNE/DV0dERAQpyckIMG3aNKPZQ1p6WtXgQDH1qan079+fvn37Mn78eL7Y/BkdklNI7ZEKVdMi819/w1gEy5YtIyIiojIKHjjAo488yv333c8jD/+SxYsWefyUUrw6dy7dunVDBIqLzzLr5VmMe/AhRt93Pw89+BCvvfoqZ4vOUlpayt69e72OU1+SkpMYPLhy94mIsHbNGs/umLoi5+cB69i49REBVE5uPzd9OgI4ysp49plnjS61sq+wFDd+9Iuu34OOLluAAAMHDaJp0yZM+NUEo8mL+8eMJiEhgUYREUaTh5H33ceSpUsrb8dKYdY0zEqjR2oqs+fOZcW/VzPzlVkMvedu/P392bRxo7EIAN57bzkDBgwEVbnLWETw9/enYcOGXn5ms5n3ViznrUVv0bdfPzT1/Y5hpaBjp448NfUpsrKy6NWrl1dek8lEQvtEEtonEmVYTqyJV+e+xsyXX6ZDxw6YTFq1q0BRkVEkJCRctMwG0OqWW0hu3572CQkEGgZx5zGZTCQlJZGYmMgtrVp52cLCw0hISKR9YiJhYeFetvN06tyJMWPHkJCQgL20hN11WM47zzt7ztG9kZBYz+1Ydd4PWBMFBQU0adLEmOyF2+3m7NmzNG5ct2eNFBUV4XA4aNmypdHkwXbuHGHh1VckVSsXhYWFhIeF0cAgvuoQEfJOnQKlaNasWbUCuZrk5eXRvHlzY/KPkt2Fdnqv2MuWh1Kw1PMRwVcsQB8+RmTsJ8RsZsnAS29gNXJtL3MfNz3/zT/HibIyZveuXHSoLz4B+rhs8uwVDF9zgFd6xdI48PK2cfluwT4umwlZOdwbF84Ay+U/psMXAX1cFs9vPkLnxsFXJD58EdBHfXGJ8O7u47jxY3zylY/ifQL0US+W7jlOdMMw7mhV8xRYffAJ0Eed+duuo3Ru3oCOza6O+PAJ0EddOF3mZENOPn1jm9IkqH4TzZfCJ0AftbLvzDkKy8rp2erKBhs14ROgj2pxuNx8ZyujWZA/jQKvbtS7EJ8AfVyELoK9vJzQwGv/v1b+H7JCAcWX7VIaAAAAAElFTkSuQmCC;" vertex="1" parent="1">
          <mxGeometry x="-2010" y="-196" width="87.27" height="30" as="geometry" />
        </mxCell>
        <mxCell id="NwiWy4_LtIeJi4y5TbyK-36" value="&lt;font style=&quot;color: rgb(51, 51, 51); font-size: 14px;&quot;&gt;Customer Invoices&lt;/font&gt;" style="rounded=1;whiteSpace=wrap;html=1;opacity=40;strokeColor=#001DBC;align=center;verticalAlign=middle;fontFamily=Helvetica;fontSize=12;fontColor=#ffffff;fillColor=#00CCCC;" vertex="1" parent="1">
          <mxGeometry x="-1973.94" y="-265" width="244.44" height="25" as="geometry" />
        </mxCell>
        <mxCell id="NwiWy4_LtIeJi4y5TbyK-37" value="" style="image;aspect=fixed;html=1;points=[];align=center;fontSize=12;image=img/lib/azure2/management_governance/Universal_Print.svg;" vertex="1" parent="1">
          <mxGeometry x="-1868.92" y="-356.67" width="50.03" height="42.67" as="geometry" />
        </mxCell>
        <mxCell id="NwiWy4_LtIeJi4y5TbyK-39" value="Standard" style="shape=image;verticalLabelPosition=bottom;labelBackgroundColor=default;verticalAlign=top;aspect=fixed;imageAspect=0;image=https://static.vecteezy.com/system/resources/thumbnails/004/572/128/small/invoice-line-icon-logo-illustration-free-vector.jpg;" vertex="1" parent="1">
          <mxGeometry x="-1920" y="-236" width="40" height="40" as="geometry" />
        </mxCell>
        <mxCell id="NwiWy4_LtIeJi4y5TbyK-40" value="Non&#xa;Household" style="shape=image;verticalLabelPosition=bottom;labelBackgroundColor=default;verticalAlign=top;aspect=fixed;imageAspect=0;image=https://static.vecteezy.com/system/resources/thumbnails/004/572/128/small/invoice-line-icon-logo-illustration-free-vector.jpg;" vertex="1" parent="1">
          <mxGeometry x="-1860" y="-236" width="40" height="40" as="geometry" />
        </mxCell>
        <mxCell id="NwiWy4_LtIeJi4y5TbyK-41" value="Southeast" style="shape=image;verticalLabelPosition=bottom;labelBackgroundColor=default;verticalAlign=top;aspect=fixed;imageAspect=0;image=https://static.vecteezy.com/system/resources/thumbnails/004/572/128/small/invoice-line-icon-logo-illustration-free-vector.jpg;" vertex="1" parent="1">
          <mxGeometry x="-1790" y="-236" width="40" height="40" as="geometry" />
        </mxCell>
        <mxCell id="NwiWy4_LtIeJi4y5TbyK-43" value="" style="shape=image;verticalLabelPosition=bottom;labelBackgroundColor=default;verticalAlign=top;aspect=fixed;imageAspect=0;image=https://www.paygate.uk/wp-content/uploads/2021/07/PAYGATE-LOGO_RGB-e1625570967117.png;" vertex="1" parent="1">
          <mxGeometry x="-1025.5" y="-551" width="160.31" height="41" as="geometry" />
        </mxCell>
      </root>
    </mxGraphModel>
  </diagram>
</mxfile>
